# xmcd
#
# Track frame offsets: 
#        150
#        4640
#        25656
#        36100
#        62088
#        66768
#        84594
#        94642
#        121044
#        126527
#        153362
#        161999
#        184017
#        189762
#        212531
#        220228
#        249242
#        255825
#        278286
#        288393
#
# Disc length: 4175 seconds
#
# Revision: 0
# Processed by: cddbd v1.5.2PL0 Copyright (c) Steve Scherf et al.
# Submitted via: ExactAudioCopy v0.99pb4
#
DISCID=02104d14
DTITLE=Hank Williams - Mother's Best [CD11)
DYEAR=1951
DGENRE=Country
TTITLE0=Mother's Best
TTITLE1=California Zephyr
TTITLE2=Down Yonder
TTITLE3=Softly and Tenderly
TTITLE4=Mother's Best
TTITLE5=Lonesome Whistle
TTITLE6=Roadside Rag
TTITLE7=I'm Bound For The Promised Land
TTITLE8=Mother's Best
TTITLE9=I Can't Tell My Heart That
TTITLE10=Georgia Steel Guitar
TTITLE11=Take My Hand Precious Lord
TTITLE12=Mother's Best
TTITLE13=Just Waitin'
TTITLE14=Eighth Of January
TTITLE15=From Jerusalem To Jericho
TTITLE16=Mother's Best
TTITLE17=Cherokee Boogie
TTITLE18=Columbus Stockade Blues
TTITLE19=A Beautiful Home
EXTD=
EXTT0=
EXTT1=
EXTT2=
EXTT3=
EXTT4=
EXTT5=
EXTT6=
EXTT7=
EXTT8=
EXTT9=
EXTT10=
EXTT11=
EXTT12=
EXTT13=
EXTT14=
EXTT15=
EXTT16=
EXTT17=
EXTT18=
EXTT19=
PLAYORDER=
